<svg viewBox="0 0 85 85" fill="transparent" xml:space="preserve" xmlns="http://www.w3.org/2000/svg"><path fill="none" stroke="#f0b800" stroke-miterlimit="10" stroke-width="2.5" d="M60.219 65.419h13.316M37.191 38.012V30.37h33.698v21.742c0 3.851-3.15 7-7 7h-6.672M16.005 48.992c-1.936.369-4.207 1.23-5.857 3.173 0 0-1.848 1.949-1.949 3.799 0 0-.205 2.053 1.949 4.518l11.805 10.364s3.463 2.666 5.928-1.029" class="stroke-394553"></path><path d="M33.32 69.816c2.463 3.695 5.928 1.029 5.928 1.029l11.803-10.364c2.156-2.465 1.951-4.518 1.951-4.518-.104-1.85-1.951-3.799-1.951-3.799-3.488-4.104-9.75-3.385-9.75-3.385l-.584.141M51.779 59.921l.504.561s4.414 4.924 4.619 9.44c0 0 .615 4.002-2.465 4.516 0 0-5.275 1.294-12.973-4.146l-.691-.49" fill="none" stroke="#f0b800" stroke-miterlimit="10" stroke-width="2.5" class="stroke-394553"></path><path d="M40.05 45.7c-1.922-3.931-7.781-4.366-9.44-4.408-1.658.042-7.518.478-9.439 4.408 0 0-1.132 2.874.307 6.876l7.082 18.68s.385 1.547 2.008 1.638c1.623-.091 2.094-1.638 2.094-1.638l7.082-18.68c1.437-4.002.306-6.876.306-6.876zM70.936 37.549a6.918 6.918 0 0 1 3.189-.769c3.646 0 6.602 2.765 6.602 6.174s-2.955 6.177-6.602 6.177a6.92 6.92 0 0 1-3.17-.759M9.447 59.921l-.504.561s-4.415 4.924-4.62 9.44c0 0-.615 4.002 2.465 4.516 0 0 5.276 1.294 12.973-4.146l.691-.49" fill="none" stroke="#f0b800" stroke-miterlimit="10" stroke-width="2.5" class="stroke-394553"></path><path d="M64.614 10.428H50.977c-1.741 0-3.166 1.56-3.166 3.3 0 1.742 1.424 3.298 3.166 3.298h6.112c1.353 0 2.462 1.177 2.462 2.532s-1.109 2.543-2.462 2.543h-2.683a2.469 2.469 0 0 0-2.462 2.461v.415" fill="none" stroke="#f0b800" stroke-linecap="round" stroke-linejoin="round" stroke-width="2.5" class="stroke-394553"></path></svg>