<?xml version="1.0" encoding="utf-8"?>
<!-- Svg Vector Icons : http://www.onlinewebfonts.com/icon -->
<!DOCTYPE svg PUBLIC "-//W3C//DTD SVG 1.1//EN" "http://www.w3.org/Graphics/SVG/1.1/DTD/svg11.dtd">
<svg version="1.1" xmlns="http://www.w3.org/2000/svg" xmlns:xlink="http://www.w3.org/1999/xlink" x="0px" y="0px" viewBox="0 0 1000 1000" enable-background="new 0 0 1000 1000" xml:space="preserve">
<metadata> Svg Vector Icons : http://www.onlinewebfonts.com/icon </metadata>
<g><path d="M544.8,498.8L982.5,61c9.9-9.9,9.9-29.8,0-44.8c-9.9-9.9-29.8-9.9-44.8,0L500,459L62.2,16.2c-9.9-9.9-29.8-9.9-44.8,0C7.5,31.1,7.5,51,17.5,61l437.8,437.8L17.5,936.5c-9.9,10-9.9,29.8,0,44.8c5,5,14.9,9.9,19.9,9.9c10,0,14.9-5,19.9-9.9L495,543.5l437.8,437.8c5,5,14.9,9.9,19.9,9.9c9.9,0,14.9-5,19.9-9.9c9.9-10,9.9-29.8,0-44.8L544.8,498.8z"/></g>
</svg>