<svg version="1.1" id="Layer_1" xmlns="http://www.w3.org/2000/svg" xmlns:xlink="http://www.w3.org/1999/xlink" x="0px" y="0px"
	 width="100%" viewBox="0 0 91 130" enable-background="new 0 0 91 130" xml:space="preserve">
<path fill="#35A854" opacity="1.000000" stroke="none" 
	d="
M48.000000,131.000000 
	C47.250000,131.000000 46.500000,131.000000 45.149685,130.733276 
	C43.842537,129.565994 42.748653,128.764786 42.488102,127.749664 
	C39.534058,116.240784 33.030712,106.623787 26.621014,96.820404 
	C33.725979,88.433784 40.626369,80.348450 47.405132,72.162399 
	C50.110641,68.895226 52.547623,65.405678 55.068031,62.024075 
	C55.029224,62.030788 54.962765,62.072319 55.318283,62.071129 
	C56.124908,61.526199 56.576012,60.982452 57.244957,60.228123 
	C59.053970,58.061069 60.645138,56.104603 62.577393,53.904381 
	C70.828278,44.344326 78.738075,35.028030 86.865189,25.973042 
	C88.721672,30.822899 90.360832,35.411449 92.000000,40.000000 
	C92.000000,44.356899 92.000000,48.713799 91.664215,53.729118 
	C89.161476,60.608387 87.867111,67.336754 84.615738,72.926857 
	C80.140114,80.621796 74.302696,87.547028 68.834671,94.636955 
	C61.405445,104.269798 54.441284,114.103355 51.070854,126.043060 
	C50.563301,127.841049 49.048740,129.354782 48.000000,131.000000 
z"/>
<path fill="#FFFEFE" opacity="1.000000" stroke="none" 
	d="
M26.367655,97.081284 
	C33.030712,106.623787 39.534058,116.240784 42.488102,127.749664 
	C42.748653,128.764786 43.842537,129.565994 44.774685,130.733276 
	C30.386560,131.000000 15.773120,131.000000 1.000000,131.000000 
	C1.000000,105.645973 1.000000,80.291649 1.343952,54.655258 
	C3.043346,58.763180 4.398788,63.153152 5.809615,67.876617 
	C12.699219,77.833824 19.533438,87.457558 26.367655,97.081284 
z"/>
<path fill="#FEFFFE" opacity="1.000000" stroke="none" 
	d="
M48.468658,131.000000 
	C49.048740,129.354782 50.563301,127.841049 51.070854,126.043060 
	C54.441284,114.103355 61.405445,104.269798 68.834671,94.636955 
	C74.302696,87.547028 80.140114,80.621796 84.615738,72.926857 
	C87.867111,67.336754 89.161476,60.608387 91.664215,54.193771 
	C92.000000,79.573517 92.000000,105.147034 92.000000,131.000000 
	C77.646980,131.000000 63.292149,131.000000 48.468658,131.000000 
z"/>
<path fill="#1C74E8" opacity="1.000000" stroke="none" 
	d="
M39.000000,1.000000 
	C43.356899,1.000000 47.713799,1.000000 52.666382,1.337058 
	C55.160763,2.342210 57.059464,3.010304 58.802315,3.990328 
	C54.750797,9.056316 50.719078,13.707026 47.003658,18.598009 
	C44.168861,22.329742 41.734890,26.365963 38.973396,30.474413 
	C38.499107,30.769115 38.174026,30.856133 37.657402,30.993155 
	C37.222080,31.179373 37.060719,31.381405 36.722610,31.852419 
	C35.302620,33.039085 34.141785,34.022587 32.704269,34.821819 
	C25.578444,28.934017 18.729298,23.230482 12.011657,17.236153 
	C16.301767,13.528690 20.141634,9.578509 24.710672,6.848844 
	C29.079292,4.238913 34.206326,2.898451 39.000000,1.000000 
z"/>
<path fill="#EA4436" opacity="1.000000" stroke="none" 
	d="
M11.880151,17.526945 
	C18.729298,23.230482 25.578444,28.934017 32.639664,35.126423 
	C31.931435,36.722973 31.011133,37.830654 29.875362,39.166313 
	C29.474430,39.967415 29.288967,40.540539 29.153877,41.051098 
	C29.204250,40.988533 29.337765,41.077869 28.983810,41.109596 
	C21.004648,49.941929 13.379439,58.742527 5.754230,67.543129 
	C4.398788,63.153152 3.043346,58.763180 1.343952,54.186600 
	C1.000000,53.250000 1.000000,52.500000 1.221154,51.093983 
	C1.294872,48.625309 1.147436,46.812656 1.000000,45.000000 
	C1.000000,43.285641 1.000000,41.571285 1.352811,39.279396 
	C3.379044,30.818022 6.089180,23.432314 11.880151,17.526945 
z"/>
<path fill="#FCFDFE" opacity="1.000000" stroke="none" 
	d="
M58.958160,3.678399 
	C57.059464,3.010304 55.160763,2.342210 53.131035,1.337058 
	C65.926643,1.000000 78.853294,1.000000 92.000000,1.000000 
	C92.000000,13.686713 92.000000,26.374699 92.000000,39.531342 
	C90.360832,35.411449 88.721672,30.822899 86.757645,25.621532 
	C81.641014,15.716089 74.298279,9.132272 64.802383,4.955365 
	C63.013241,4.168384 60.914200,4.085943 58.958160,3.678399 
z"/>
<path fill="#FDFDFE" opacity="1.000000" stroke="none" 
	d="
M12.011657,17.236153 
	C6.089180,23.432314 3.379044,30.818022 1.352811,38.850937 
	C1.000000,26.406702 1.000000,13.813402 1.000000,1.000000 
	C13.353357,1.000000 25.708019,1.000000 38.531342,1.000000 
	C34.206326,2.898451 29.079292,4.238913 24.710672,6.848844 
	C20.141634,9.578509 16.301767,13.528690 12.011657,17.236153 
z"/>
<path fill="#EC5E53" opacity="1.000000" stroke="none" 
	d="
M1.000000,45.428463 
	C1.147436,46.812656 1.294872,48.625309 1.221154,50.718983 
	C1.000000,49.285641 1.000000,47.571285 1.000000,45.428463 
z"/>
<path fill="#FABC06" opacity="1.000000" stroke="none" 
	d="
M5.809615,67.876617 
	C13.379439,58.742527 21.004648,49.941929 29.069056,41.555542 
	C27.902136,53.065971 33.265877,61.760975 43.523933,63.386868 
	C47.219704,63.972641 51.236530,62.532803 55.106842,62.017357 
	C52.547623,65.405678 50.110641,68.895226 47.405132,72.162399 
	C40.626369,80.348450 33.725979,88.433784 26.621014,96.820404 
	C19.533438,87.457558 12.699219,77.833824 5.809615,67.876617 
z"/>
<path fill="#4285F3" opacity="1.000000" stroke="none" 
	d="
M58.802315,3.990329 
	C60.914200,4.085943 63.013241,4.168384 64.802383,4.955365 
	C74.298279,9.132272 81.641014,15.716089 86.540337,25.360226 
	C78.738075,35.028030 70.828278,44.344326 62.736572,53.395050 
	C62.826508,49.565742 63.954464,45.811741 63.212524,42.473305 
	C60.815960,31.689795 51.888538,27.400452 39.122608,30.266729 
	C41.734890,26.365963 44.168861,22.329742 47.003658,18.598009 
	C50.719078,13.707026 54.750797,9.056316 58.802315,3.990329 
z"/>
<path fill="#FEFEFD" opacity="1.000000" stroke="none" 
	d="
M38.973396,30.474413 
	C51.888538,27.400452 60.815960,31.689795 63.212524,42.473305 
	C63.954464,45.811741 62.826508,49.565742 62.395485,53.638809 
	C60.645138,56.104603 59.053970,58.061069 56.946838,60.396584 
	C55.941498,61.207859 55.452133,61.640087 54.962765,62.072319 
	C54.962765,62.072319 55.029224,62.030788 55.068031,62.024071 
	C51.236530,62.532803 47.219704,63.972641 43.523933,63.386868 
	C33.265877,61.760975 27.902136,53.065971 29.423008,41.523811 
	C29.337765,41.077869 29.204250,40.988533 29.489702,40.965874 
	C29.880381,40.274921 29.985607,39.606628 30.090834,38.938335 
	C31.011133,37.830654 31.931435,36.722973 32.916344,35.310688 
	C34.141785,34.022587 35.302620,33.039085 36.924068,31.821955 
	C37.638653,31.444683 37.793407,31.229626 37.848949,30.943151 
	C38.174026,30.856133 38.499107,30.769115 38.973396,30.474413 
z"/>
<path fill="#FABC06" opacity="1.000000" stroke="none" 
	d="
M55.318283,62.071129 
	C55.452133,61.640087 55.941498,61.207859 56.728989,60.607166 
	C56.576012,60.982452 56.124908,61.526199 55.318283,62.071129 
z"/>
<path fill="#4285F3" opacity="1.000000" stroke="none" 
	d="
M37.657402,30.993155 
	C37.793407,31.229626 37.638653,31.444683 37.183228,31.618786 
	C37.060719,31.381405 37.222080,31.179373 37.657402,30.993155 
z"/>
<path fill="#FABC06" opacity="1.000000" stroke="none" 
	d="
M29.875362,39.166313 
	C29.985607,39.606628 29.880381,40.274921 29.439331,41.028439 
	C29.288967,40.540539 29.474430,39.967415 29.875362,39.166313 
z"/>
</svg>