<svg width="30" height="29" viewBox="0 0 30 29" fill="none" xmlns="http://www.w3.org/2000/svg">
<path fill-rule="evenodd" clip-rule="evenodd" d="M11.3994 17.9537C16.2928 17.9537 22.7989 18.5048 22.7989 23.2721C22.7989 28.294 15.2179 28.5953 11.966 28.6134L10.7854 28.6134C7.31812 28.5954 -0.000213623 28.2958 -0.000213623 23.3022C-0.000213623 18.2746 7.58082 17.973 10.8327 17.9549L11.2234 17.9538C11.2843 17.9537 11.343 17.9537 11.3994 17.9537ZM11.3994 20.206C7.22662 20.206 2.25207 20.7421 2.25207 23.3022C2.25207 25.3322 5.3302 26.3623 11.3994 26.3623C17.4685 26.3623 20.5466 25.3217 20.5466 23.2721C20.5466 21.2376 17.4685 20.206 11.3994 20.206ZM25.0853 17.2524C29.1484 17.8605 29.9998 19.7419 29.9998 21.2119C29.9998 22.3065 29.5268 23.7885 27.27 24.6429C27.1394 24.6924 27.0042 24.7164 26.8706 24.7164C26.4156 24.7164 25.9877 24.4387 25.818 23.9897C25.5973 23.4086 25.8901 22.7569 26.4712 22.5377C27.7475 22.0542 27.7475 21.4641 27.7475 21.2119C27.7475 20.3605 26.74 19.7779 24.7535 19.4821C24.1378 19.389 23.7129 18.8154 23.8045 18.2013C23.8976 17.5857 24.4817 17.1728 25.0853 17.2524ZM11.3994 0C15.6502 0 19.1098 3.45951 19.1098 7.71033C19.1187 9.75841 18.3244 11.6924 16.8769 13.1488C15.4325 14.6068 13.503 15.4131 11.4504 15.4207H11.3994C7.14704 15.4207 3.68753 11.9611 3.68753 7.71033C3.68753 3.45951 7.14704 0 11.3994 0ZM22.0416 1.68741C24.9921 2.1709 27.1332 4.69497 27.1332 7.6875C27.1272 10.6981 24.8794 13.2837 21.9034 13.7011C21.8509 13.7086 21.7983 13.7116 21.7458 13.7116C21.1932 13.7116 20.7112 13.3047 20.6316 12.7416C20.546 12.126 20.974 11.5554 21.5896 11.4698C23.4635 11.2071 24.8779 9.58093 24.8809 7.686C24.8809 5.80309 23.5326 4.21448 21.6782 3.91117C21.0641 3.80907 20.6481 3.23098 20.7487 2.61686C20.8494 2.00273 21.4304 1.58981 22.0416 1.68741ZM11.3994 2.25229C8.3888 2.25229 5.93982 4.70127 5.93982 7.71033C5.93982 10.7194 8.3888 13.1684 11.3994 13.1684H11.4459C12.8934 13.1624 14.2568 12.5933 15.2793 11.5617C16.3033 10.5332 16.8634 9.1653 16.8574 7.71483C16.8574 4.70127 14.4084 2.25229 11.3994 2.25229Z" fill="#6A6966"/>
</svg>
