<svg width="934" height="934" viewBox="0 0 934 934" fill="none" xmlns="http://www.w3.org/2000/svg">
<rect width="934" height="934"/>
<path d="M540.6 523.493C546.381 529.332 546.355 538.753 540.548 544.567L477.231 607.884C474.314 610.811 470.496 612.264 466.673 612.264C462.85 612.264 459.033 610.806 456.116 607.889L392.799 544.572C386.991 538.765 386.965 529.337 392.747 523.499C412.367 503.701 438.621 492.801 466.673 492.801C494.725 492.801 520.98 503.702 540.6 523.495L540.6 523.493ZM466.673 373.333C407.001 373.333 350.752 396.62 308.3 438.912C305.487 441.714 303.909 445.511 303.904 449.48C303.899 453.443 305.472 457.251 308.279 460.053L350.539 502.313C356.372 508.146 365.826 508.146 371.654 502.313C397.055 476.917 430.799 462.933 466.675 462.933C502.551 462.933 536.295 476.917 561.696 502.313C564.618 505.235 568.431 506.688 572.254 506.688C576.077 506.688 579.894 505.229 582.811 502.313L625.071 460.053C627.878 457.251 629.457 453.443 629.446 449.48C629.441 445.516 627.863 441.714 625.05 438.912C582.597 396.62 526.347 373.333 466.677 373.333H466.673ZM793.967 270.041C706.513 182.568 590.273 134.401 466.673 134.401C343.073 134.401 226.833 182.568 139.38 270.041C133.547 275.875 133.547 285.328 139.38 291.156L181.64 333.416C184.442 336.218 188.239 337.791 192.197 337.791H192.203C196.166 337.791 199.968 336.208 202.77 333.405C273.172 262.853 366.89 223.999 466.677 223.999C566.464 223.999 660.17 262.853 730.584 333.411C733.386 336.213 737.183 337.796 741.151 337.796H741.157C745.115 337.796 748.917 336.223 751.714 333.421L793.974 291.161C799.807 285.323 799.807 275.869 793.974 270.041H793.967ZM466.673 253.864C374.856 253.864 288.58 289.567 223.753 354.411C217.92 360.244 217.92 369.697 223.753 375.525L266.013 417.785C271.836 423.619 281.273 423.619 287.112 417.801C335.211 369.869 398.981 343.468 466.672 343.468C534.363 343.468 598.136 369.869 646.232 417.806C649.154 420.718 652.961 422.166 656.774 422.166C660.597 422.166 664.414 420.707 667.331 417.791L709.591 375.531C715.424 369.697 715.424 360.244 709.591 354.416C644.763 289.572 558.498 253.864 466.671 253.864L466.673 253.864Z" fill="#FEB702"/>
</svg>
