<svg width="82" height="92" viewBox="0 0 82 92" fill="none" xmlns="http://www.w3.org/2000/svg">
<path d="M31.2413 49.3222C31.322 49.3999 31.3973 49.4862 31.4638 49.5785L40.9991 60.5034L50.5344 49.5785C50.6036 49.4895 50.6762 49.4032 50.7569 49.3222L56.5712 42.6599C56.5941 42.6311 56.6176 42.605 56.6438 42.5762L59.0553 39.8132C60.0993 38.3972 60.984 36.8574 61.6751 35.2139C62.7884 32.5692 63.4015 29.659 63.4015 26.6029C63.4015 20.4438 60.8947 14.8689 56.8409 10.8344C52.7871 6.79927 47.1865 4.30399 40.9998 4.30399C34.8123 4.30399 29.2117 6.79927 25.1586 10.8344C21.1048 14.8696 18.5981 20.4445 18.5981 26.6029C18.5981 29.659 19.2112 32.5692 20.3244 35.2139C21.0155 36.854 21.8975 38.3971 22.9442 39.8098L25.3557 42.5728C25.3819 42.6016 25.4074 42.6303 25.431 42.6591L31.2427 49.3187L31.2413 49.3222ZM28.7431 53.0148H14.3185L11.8406 62.2187L21.749 65.2092C21.8445 65.232 21.94 65.2607 22.0294 65.2955L61.3384 77.1614L71.8888 68.6367L67.6852 53.0149H53.2606L42.6523 65.1684C42.5797 65.2548 42.5017 65.3324 42.4149 65.4073C41.5128 66.1842 40.1508 66.0865 39.3676 65.1885L28.7452 53.0143L28.7431 53.0148ZM57.0223 48.7033H69.3421V48.706C70.2994 48.706 71.1721 49.339 71.4328 50.3033L81.8931 89.1681C81.9624 89.3809 82 89.6057 82 89.8446C82 91.0364 81.0313 92 79.8347 92H2.16321V91.9973C1.97834 91.9973 1.7901 91.9746 1.60524 91.9251C0.451644 91.6172 -0.233462 90.4368 0.0731652 89.2884L10.5369 50.4202C10.742 49.4419 11.6125 48.7051 12.6565 48.7051H24.9791L22.1859 45.5078C19.7025 43.0586 17.6986 40.129 16.3311 36.8735C15.0014 33.7103 14.2666 30.2426 14.2666 26.6104C14.2666 19.2628 17.2589 12.6087 22.0964 7.79386C26.9332 2.97923 33.6182 0 40.9997 0C48.3812 0 55.066 2.97854 59.903 7.79386C64.7398 12.6085 67.7328 19.2628 67.7328 26.6104C67.7328 30.2426 66.9987 33.7103 65.6655 36.8709C64.2948 40.1292 62.2916 43.0588 59.8108 45.508L57.0209 48.7053L57.0223 48.7033ZM41.0017 10.618C45.4366 10.618 49.4526 12.408 52.3588 15.3002C55.2643 18.1956 57.0626 22.19 57.0626 26.6052C57.0626 31.0198 55.2643 35.0173 52.3588 37.9102C49.45 40.8024 45.4372 42.5924 41.0017 42.5924C36.5667 42.5924 32.5508 40.8024 29.6446 37.9102C26.739 35.0147 24.9408 31.0203 24.9408 26.6052C24.9408 22.1905 26.739 18.1931 29.6446 15.3002C32.5534 12.4047 36.5662 10.618 41.0017 10.618ZM49.2966 18.351C47.1743 16.2384 44.2426 14.9322 41.0017 14.9322C37.7635 14.9322 34.829 16.2391 32.7067 18.351C30.5844 20.4636 29.2721 23.3818 29.2721 26.6079C29.2721 29.8313 30.5851 32.7522 32.7067 34.8648C34.829 36.9774 37.7607 38.2836 41.0017 38.2836C44.2399 38.2836 47.1743 36.9767 49.2966 34.8648C51.419 32.7522 52.7312 29.834 52.7312 26.6079C52.7312 23.3846 51.4183 20.4636 49.2966 18.351V18.351ZM24.678 70.5847L30.5649 87.6888H48.3117L57.2951 80.4303L24.679 70.5847H24.678ZM25.9936 87.6888L19.5748 69.047L10.7245 66.3738L4.98535 87.688L25.9936 87.6888ZM55.1642 87.6888H77.0173L73.1141 73.1891L55.1642 87.6888Z" fill="#cf8f24"/>
</svg>
