<svg viewBox="0 0 64 64" xmlns="http://www.w3.org/2000/svg"><path d="M9 54h8a1 1 0 0 0 1-1v-.381l7.466 3.1a17.3 17.3 0 0 0 12.726.141l15.448-5.891a3.639 3.639 0 0 0 2.043-1.947 3.706 3.706 0 0 0 .058-2.87 3.646 3.646 0 0 0-1.991-2.043 3.58 3.58 0 0 0-2.8.006l-6.484 2.753a3.448 3.448 0 0 0 .034-.368A3.5 3.5 0 0 0 41 42h-7.757a5.086 5.086 0 0 1-2.261-.534A23.478 23.478 0 0 0 20.535 39H18a1 1 0 0 0-1-1H9a1 1 0 0 0-1 1H4v2h4v10H4v2h4a1 1 0 0 0 1 1Zm11.535-13a21.469 21.469 0 0 1 9.553 2.255 7.078 7.078 0 0 0 3.155.745H41a1.5 1.5 0 0 1 .33 2.961c-.131.012-.259.039-.392.039H29v2h12c.02 0 .039-.006.06-.006a6.161 6.161 0 0 0 2.308-.489l8.361-3.549a1.588 1.588 0 0 1 1.247 0 1.651 1.651 0 0 1 .9.931 1.716 1.716 0 0 1-.027 1.329 1.652 1.652 0 0 1-.926.887l-15.448 5.89a15.3 15.3 0 0 1-11.252-.121L18 50.453V41ZM10 40h6v12h-6ZM15 36h40a3 3 0 0 0 0-6h-.051A20 20 0 0 0 38 11.25V10a3 3 0 0 0-6 0v1.25A20 20 0 0 0 15.051 30H15a3 3 0 0 0 0 6Zm19-25v-1a1 1 0 0 1 2 0v1Zm1 2a18.023 18.023 0 0 1 17.973 17H17.027A18.023 18.023 0 0 1 35 13ZM15 32h40a1 1 0 0 1 0 2H15a1 1 0 0 1 0-2Z" fill="#f0b800" class="fill-000000"></path><path d="m29.667 15.911.666 1.885a13.955 13.955 0 0 1 1.867-.516l-.4-1.96a15.837 15.837 0 0 0-2.133.591ZM20.847 23.533l1.767.934a13.976 13.976 0 0 1 5.854-5.852l-.936-1.769a15.979 15.979 0 0 0-6.685 6.687Z" fill="#f0b800" class="fill-000000"></path></svg>