<svg width="44" height="44" viewBox="0 0 44 44" fill="none" xmlns="http://www.w3.org/2000/svg">
<circle cx="22" cy="22" r="22" fill="white"/>
<path d="M22.0007 23.4082H29.1806L31.2058 13.7613L26.5058 17.8604C26.2318 18.1006 25.8151 18.0724 25.5757 17.7984C25.5345 17.7514 25.5022 17.7011 25.4767 17.6474L25.475 17.6482L22.0014 10.3626L18.5278 17.6482C18.3703 17.9782 17.9758 18.1177 17.6465 17.961C17.5747 17.9262 17.5112 17.8802 17.4583 17.8264L12.7971 13.7611L14.8223 23.408H22.0022L22.0007 23.4082ZM11.7446 7.14531C12.5022 7.14531 13.1888 7.45233 13.6848 7.94912C14.1816 8.44591 14.4886 9.13172 14.4886 9.88931C14.4886 10.6469 14.1816 11.3327 13.6848 11.8295C13.5108 12.0035 13.3135 12.1547 13.098 12.2768L17.7064 16.2959L21.0357 9.31395C20.6659 9.17445 20.3341 8.95914 20.0601 8.68418C19.5633 8.1874 19.2563 7.50158 19.2563 6.744C19.2563 5.98641 19.5633 5.3006 20.0601 4.80381C20.5569 4.30702 21.2427 4 22.0003 4C22.7579 4 23.4437 4.30702 23.9405 4.80381C24.4373 5.3006 24.7443 5.98641 24.7443 6.744C24.7443 7.50158 24.4373 8.1874 23.9405 8.68418C23.6665 8.9582 23.3347 9.17446 22.965 9.31395L26.2942 16.2959L30.9026 12.2768C30.6871 12.1546 30.49 12.0035 30.3158 11.8295C29.819 11.3327 29.512 10.6469 29.512 9.88931C29.512 9.13172 29.819 8.44517 30.3158 7.94912C30.8126 7.45233 31.4984 7.14531 32.256 7.14531C33.0136 7.14531 33.6994 7.45233 34.1962 7.94912C34.693 8.44591 35 9.13172 35 9.88931C35 10.6469 34.693 11.3327 34.1962 11.8295C33.8224 12.2033 33.3411 12.4698 32.8031 12.5788L30.3709 24.1602C30.3271 24.4837 30.0506 24.733 29.7156 24.733H14.2844V24.7313C13.9781 24.7313 13.7033 24.5175 13.6381 24.2055L11.1969 12.5799C10.6589 12.4709 10.1776 12.2044 9.80381 11.8306C9.30702 11.3338 9 10.648 9 9.89038C9 9.1328 9.30702 8.44624 9.80381 7.95019C10.3006 7.45341 10.9864 7.14638 11.744 7.14638L11.7446 7.14531ZM12.749 8.88419C12.4922 8.62744 12.1366 8.46817 11.7446 8.46817C11.3526 8.46817 10.9968 8.62744 10.7403 8.88419C10.4836 9.14094 10.3243 9.49652 10.3243 9.88852C10.3243 10.2805 10.4836 10.6363 10.7403 10.8929C10.9971 11.1496 11.3526 11.3089 11.7446 11.3089C12.1374 11.3089 12.4924 11.1496 12.7498 10.8929C13.0065 10.6361 13.1658 10.2805 13.1658 9.88852C13.1658 9.49572 13.0065 9.14071 12.7498 8.88419H12.749ZM33.2605 8.88419C33.0038 8.62744 32.6482 8.46817 32.2562 8.46817C31.8634 8.46817 31.5084 8.62744 31.2519 8.88419C30.9951 9.14094 30.8359 9.49652 30.8359 9.88852C30.8359 10.2805 30.9951 10.6363 31.2519 10.8929C31.5094 11.1496 31.8642 11.3089 32.257 11.3089C32.649 11.3089 33.0048 11.1496 33.2613 10.8929C33.5181 10.6361 33.6773 10.2805 33.6773 9.88852C33.6773 9.49572 33.5181 9.14071 33.2613 8.88419H33.2605ZM23.0045 5.73989C22.7478 5.48314 22.3922 5.32387 22.0002 5.32387C21.6081 5.32387 21.2524 5.48314 20.9958 5.73989C20.7391 5.99663 20.5798 6.35221 20.5798 6.74422C20.5798 7.13701 20.7391 7.49203 20.9958 7.74855C21.2526 8.0053 21.6082 8.16457 22.0002 8.16457C22.3922 8.16457 22.748 8.0053 23.0045 7.74855C23.2613 7.4918 23.4205 7.13622 23.4205 6.74422C23.4205 6.35219 23.2613 5.99641 23.0045 5.73989V5.73989ZM14.9094 27.2683C14.5439 27.2683 14.2476 26.972 14.2476 26.6065C14.2476 26.2409 14.5439 25.9446 14.9094 25.9446H29.0914C29.457 25.9446 29.7533 26.2409 29.7533 26.6065C29.7533 26.972 29.457 27.2683 29.0914 27.2683H14.9094Z" fill="#B47C21"/>
<path d="M16.4977 39L14.0497 31.152H15.5257L16.6297 35.1C16.7577 35.54 16.8697 35.964 16.9657 36.372C17.0697 36.78 17.1897 37.208 17.3257 37.656H17.3737C17.5097 37.208 17.6257 36.78 17.7217 36.372C17.8257 35.964 17.9377 35.54 18.0577 35.1L19.1497 31.152H20.5777L18.1417 39H16.4977ZM21.5273 39V31.152H22.9193V39H21.5273ZM24.914 39V31.152H27.386C28.258 31.152 28.982 31.328 29.558 31.68C30.134 32.032 30.422 32.664 30.422 33.576C30.422 34.448 30.134 35.092 29.558 35.508C28.99 35.916 28.282 36.12 27.434 36.12H26.306V39H24.914ZM26.306 35.004H27.326C28.478 35.004 29.054 34.528 29.054 33.576C29.054 33.08 28.902 32.74 28.598 32.556C28.302 32.364 27.862 32.268 27.278 32.268H26.306V35.004Z" fill="#B47C21"/>
</svg>
