<svg width="1525" height="653" viewBox="0 0 1525 653" fill="none" xmlns="http://www.w3.org/2000/svg">
<path d="M0 490.537C39.867 470.82 22.5181 416.404 21.7523 374.088C35.0953 402.495 46.3617 493.478 0 490.537Z" fill="#E3B66A"/>
<path d="M74.6094 315.2C74.7709 314.995 74.9471 314.775 75.1086 314.569C74.9324 314.775 74.7709 314.995 74.6094 315.2Z" fill="#E3B66A"/>
<path d="M199.571 187.857C199.527 187.93 199.468 188.019 199.424 188.107C199.468 188.019 199.512 187.945 199.571 187.857Z" fill="#E3B66A"/>
<path d="M195.006 187.695C195.345 186.96 195.86 186.151 196.508 185.431C195.875 186.136 195.33 187.004 195.006 187.695Z" fill="#E3B66A"/>
<path d="M137.995 540.881C100.75 537.823 209.04 535.618 229.511 511.004C279.599 486.479 309.083 439.502 345.533 401.906C324.016 469.938 220.63 547.454 137.995 540.881Z" fill="#E3B66A"/>
<path d="M295.342 457.249C288.995 422.359 327.728 395.907 354.266 379.807C365.047 403.965 329.186 440.164 307.33 449.471C302.765 446.825 306.388 442.355 309.79 440.62C402.277 354.812 301.866 400.274 295.342 457.249Z" fill="#E3B66A"/>
<path d="M74.683 315.01C74.683 315.01 74.6388 315.143 74.6094 315.216C74.6388 315.143 74.6683 315.084 74.683 315.01Z" fill="#E3B66A"/>
<path d="M74.9336 313.658C74.9336 313.775 74.919 313.907 74.9043 314.024C74.9043 313.907 74.9336 313.775 74.9336 313.658Z" fill="#E3B66A"/>
<path d="M74.9336 313.29C74.9336 313.422 74.9336 313.539 74.9336 313.671C74.9336 313.554 74.9336 313.422 74.9336 313.29Z" fill="#E3B66A"/>
<path d="M76.6567 312.79C76.0971 312.996 75.5227 313.172 74.9336 313.29C75.5374 313.172 76.1118 312.996 76.6567 312.79Z" fill="#E3B66A"/>
<path d="M159.365 309.923C172.649 318.774 182.207 341.461 184.137 353.93C182.207 341.461 172.649 318.76 159.365 309.923Z" fill="#E3B66A"/>
<path d="M199.35 230.158C210.145 222.071 213.885 212.984 214.327 203.295C213.885 212.999 210.145 222.071 199.35 230.158Z" fill="#E3B66A"/>
<path d="M197.906 224.659L197.803 224.277C198.318 226.247 198.819 228.202 199.349 230.173C198.863 228.335 198.377 226.511 197.906 224.659Z" fill="#E3B66A"/>
<path d="M195.506 210.029C195.903 214.808 196.581 219.557 197.789 224.203C196.581 219.557 195.903 214.822 195.506 210.029Z" fill="#E3B66A"/>
<path d="M195.477 209.676C195.477 209.765 195.476 209.868 195.491 209.956C195.491 209.853 195.491 209.765 195.477 209.676Z" fill="#E3B66A"/>
<path d="M201.132 170.551C201.132 170.551 201.058 170.654 201.014 170.713C201.058 170.654 201.087 170.595 201.132 170.551Z" fill="#E3B66A"/>
<path d="M201.486 170.08C201.486 170.08 201.412 170.183 201.383 170.228C201.412 170.183 201.456 170.139 201.486 170.08Z" fill="#E3B66A"/>
<path d="M201.691 169.801C201.691 169.801 201.588 169.933 201.529 170.007C201.573 169.933 201.632 169.875 201.691 169.801Z" fill="#E3B66A"/>
<path d="M202.045 169.36C202.045 169.36 201.956 169.478 201.912 169.537C201.956 169.478 202 169.419 202.045 169.36Z" fill="#E3B66A"/>
<path d="M203.238 167.919C203.165 167.993 203.106 168.066 203.047 168.14C203.121 168.066 203.179 167.993 203.238 167.919Z" fill="#E3B66A"/>
<path d="M203.857 167.213C203.857 167.213 203.724 167.36 203.65 167.434C203.724 167.36 203.783 167.287 203.857 167.213Z" fill="#E3B66A"/>
<path d="M204.297 166.757C204.15 166.904 204.003 167.066 203.871 167.212C204.003 167.051 204.15 166.904 204.297 166.757Z" fill="#E3B66A"/>
<path d="M204.52 166.522C204.52 166.522 204.372 166.669 204.299 166.743C204.372 166.669 204.446 166.596 204.52 166.522Z" fill="#E3B66A"/>
<path d="M205.197 165.831C204.961 166.052 204.741 166.287 204.52 166.522C204.741 166.287 204.961 166.066 205.197 165.831Z" fill="#E3B66A"/>
<path d="M205.666 165.361C205.505 165.507 205.358 165.669 205.211 165.816C205.358 165.669 205.519 165.507 205.666 165.361Z" fill="#E3B66A"/>
<path d="M205.903 165.14C205.903 165.14 205.755 165.273 205.682 165.346C205.755 165.273 205.829 165.214 205.903 165.14Z" fill="#E3B66A"/>
<path d="M206.388 164.67L205.918 165.125C206.079 164.978 206.226 164.816 206.388 164.67Z" fill="#E3B66A"/>
<path d="M206.64 164.449C206.566 164.508 206.493 164.582 206.404 164.655C206.478 164.582 206.552 164.508 206.64 164.449Z" fill="#E3B66A"/>
<path d="M207.377 163.773C207.377 163.773 207.244 163.89 207.186 163.949C207.244 163.89 207.318 163.832 207.377 163.773Z" fill="#E3B66A"/>
<path d="M207.685 163.508C207.611 163.582 207.523 163.655 207.449 163.714C207.523 163.641 207.611 163.567 207.685 163.508Z" fill="#E3B66A"/>
<path d="M199.409 526.619C164.093 501.521 188.01 445.002 216.846 425.005C219.954 455.353 242.722 514.386 199.409 526.619ZM187.568 496.654C213.857 557.202 224.46 462.19 211.206 439.164C198.525 455.661 183.754 474.555 187.568 496.654Z" fill="#E3B66A"/>
<path d="M262.325 562.73C246.979 568.891 210.028 529.442 224.799 527.957C233.651 554.732 268.054 567.641 290.233 550.247C305.785 559.304 270.734 564.465 262.325 562.716V562.73Z" fill="#E3B66A"/>
<path d="M304.944 562.921C297.89 520.561 246.977 531.118 239.555 515.18C260.32 517.136 324.443 538.882 304.944 562.921Z" fill="#E3B66A"/>
<path d="M13.4316 572.126C13.4316 574.831 15.302 576.301 17.3049 576.522C15.2873 576.301 13.4316 574.831 13.4316 572.126Z" fill="#E3B66A"/>
<path d="M12.2832 511.739C18.0711 531.177 14.5512 552.188 13.4319 572.008C14.5512 552.144 18.0563 531.148 12.2832 511.739Z" fill="#E3B66A"/>
<path d="M22.3411 570.641C22.5767 565.656 23.0922 560.672 23.5045 555.687C23.0627 560.981 22.5178 566.274 22.2969 571.582C22.2969 571.273 22.3263 570.949 22.3411 570.641Z" fill="#E3B66A"/>
<path d="M23.6369 554.1C23.6369 554.188 23.6369 554.276 23.6074 554.364C23.6074 554.276 23.6074 554.188 23.6369 554.1Z" fill="#E3B66A"/>
<path d="M23.8282 551.041C23.8282 551.232 23.8135 551.408 23.7988 551.599C23.7988 551.408 23.8135 551.232 23.8282 551.041Z" fill="#E3B66A"/>
<path d="M23.8741 550.277C23.8741 550.526 23.8448 550.79 23.8301 551.04C23.8301 550.79 23.8594 550.526 23.8741 550.277Z" fill="#E3B66A"/>
<path d="M23.8877 549.865C23.8877 549.997 23.8877 550.144 23.873 550.276C23.873 550.144 23.8731 549.997 23.8877 549.865Z" fill="#E3B66A"/>
<path d="M23.9907 547.821C24.0938 545.689 24.1822 543.543 24.2263 541.396C24.1674 544.16 24.0349 546.924 23.9023 549.689C23.9318 549.071 23.9612 548.439 23.9907 547.821Z" fill="#E3B66A"/>
<path d="M23.3867 521.885C23.4014 522.032 23.4308 522.164 23.4455 522.31C23.4308 522.164 23.4161 522.032 23.3867 521.885Z" fill="#E3B66A"/>
<path d="M23.2402 520.9C23.2696 521.061 23.2843 521.208 23.2989 521.369C23.2843 521.208 23.2549 521.061 23.2402 520.9Z" fill="#E3B66A"/>
<path d="M22.9746 519.165C23.004 519.341 23.0333 519.517 23.0627 519.708C23.0333 519.531 23.004 519.355 22.9746 519.165Z" fill="#E3B66A"/>
<path d="M22.8867 518.635C22.9161 518.811 22.9454 518.988 22.9748 519.149C22.9454 518.973 22.9161 518.797 22.8867 518.635Z" fill="#E3B66A"/>
<path d="M22.7832 518.062C22.8126 518.223 22.8419 518.385 22.8713 518.561C22.8419 518.399 22.8126 518.238 22.7832 518.062Z" fill="#E3B66A"/>
<path d="M22.459 516.356C22.4884 516.518 22.5177 516.679 22.5617 516.826C22.5324 516.664 22.503 516.503 22.459 516.356Z" fill="#E3B66A"/>
<path d="M22.3418 515.768C22.3712 515.93 22.4005 516.076 22.4446 516.238C22.4152 516.076 22.3858 515.93 22.3418 515.768Z" fill="#E3B66A"/>
<path d="M21.959 514.063C22.003 514.224 22.0324 514.385 22.0618 514.532C22.0324 514.371 21.9884 514.209 21.959 514.063Z" fill="#E3B66A"/>
<path d="M21.8125 513.475C21.8565 513.621 21.8859 513.783 21.9299 513.944C21.8859 513.783 21.8565 513.636 21.8125 513.475Z" fill="#E3B66A"/>
<path d="M21.6641 512.872C21.7081 513.033 21.7521 513.195 21.7815 513.356C21.7375 513.195 21.7081 513.033 21.6641 512.872Z" fill="#E3B66A"/>
<path d="M21.5312 512.357C21.5753 512.518 21.6193 512.665 21.6487 512.827C21.6046 512.665 21.5753 512.518 21.5312 512.357Z" fill="#E3B66A"/>
<path d="M12.0625 510.887C12.092 510.99 12.1215 511.078 12.1509 511.196C12.1215 511.093 12.092 510.99 12.0625 510.887Z" fill="#E3B66A"/>
<path d="M21.0461 510.592C21.0167 510.475 20.9874 510.357 20.9434 510.24C21.0168 510.519 21.1048 510.812 21.1783 511.106C21.1342 510.944 21.0902 510.768 21.0315 510.592H21.0461Z" fill="#E3B66A"/>
<path d="M11.7969 509.916C11.8262 510.048 11.8703 510.18 11.8997 510.313C11.8556 510.18 11.8262 510.048 11.7969 509.916Z" fill="#E3B66A"/>
<path d="M11.6797 509.49C11.7237 509.637 11.7531 509.769 11.7971 509.901C11.7531 509.769 11.7237 509.622 11.6797 509.49Z" fill="#E3B66A"/>
<path d="M11.5605 509.078C11.59 509.167 11.6195 509.255 11.6342 509.343C11.6048 509.255 11.59 509.167 11.5605 509.078Z" fill="#E3B66A"/>
<path d="M20.7656 509.534C20.7656 509.534 20.7951 509.666 20.8245 509.74C20.8098 509.666 20.7951 509.608 20.7656 509.534Z" fill="#E3B66A"/>
<path d="M11.4434 508.681C11.4434 508.681 11.4876 508.828 11.5023 508.902C11.4728 508.828 11.4581 508.755 11.4434 508.681Z" fill="#E3B66A"/>
<path d="M11.1641 507.696C11.1641 507.696 11.1935 507.829 11.223 507.887C11.2083 507.829 11.1788 507.755 11.1641 507.696Z" fill="#E3B66A"/>
<path d="M11.0156 486.95C12.6209 486.009 14.1378 484.906 15.5811 483.686C14.1526 484.891 12.6209 486.024 11.0156 486.95Z" fill="#E3B66A"/>
<path d="M12.1498 477.319C10.3973 478.907 8.45324 480.304 6.24414 481.451C8.43852 480.304 10.3973 478.907 12.1498 477.319Z" fill="#E3B66A"/>
<path d="M12.6946 476.819C12.5184 476.981 12.3422 477.157 12.166 477.318C12.3422 477.157 12.5184 476.995 12.6946 476.819Z" fill="#E3B66A"/>
<path d="M12.9467 476.555C12.8584 476.643 12.7847 476.731 12.6816 476.82C12.77 476.731 12.8584 476.643 12.9467 476.555Z" fill="#E3B66A"/>
<path d="M13.7257 475.775C13.6521 475.849 13.5784 475.923 13.5195 475.996C13.5932 475.923 13.6521 475.849 13.7257 475.775Z" fill="#E3B66A"/>
<path d="M13.9777 475.511C13.9777 475.511 13.8451 475.658 13.7715 475.732C13.8451 475.658 13.9041 475.584 13.9777 475.511Z" fill="#E3B66A"/>
<path d="M14.213 475.246C14.213 475.246 14.0804 475.379 14.0215 475.452C14.0951 475.379 14.154 475.305 14.213 475.246Z" fill="#E3B66A"/>
<path d="M14.4619 474.967C14.4619 474.967 14.3441 475.099 14.2852 475.158C14.3441 475.099 14.403 475.026 14.4619 474.967Z" fill="#E3B66A"/>
<path d="M14.6991 474.687C14.6991 474.687 14.596 474.82 14.5371 474.879C14.596 474.805 14.6402 474.746 14.6991 474.687Z" fill="#E3B66A"/>
<path d="M14.9335 474.408C14.9335 474.408 14.8304 474.54 14.7715 474.599C14.8304 474.54 14.8746 474.467 14.9335 474.408Z" fill="#E3B66A"/>
<path d="M15.1688 474.143C15.1688 474.143 15.0657 474.261 15.0215 474.32C15.0657 474.261 15.1246 474.202 15.1688 474.143Z" fill="#E3B66A"/>
<path d="M15.3904 473.864C15.3904 473.864 15.302 473.967 15.2578 474.026C15.302 473.982 15.3462 473.923 15.3904 473.864Z" fill="#E3B66A"/>
<path d="M15.6256 473.57C15.6256 473.57 15.552 473.673 15.5078 473.732C15.552 473.673 15.5814 473.629 15.6256 473.57Z" fill="#E3B66A"/>
<path d="M23.9166 473.54C23.8285 473.702 23.7404 473.863 23.6523 474.01C23.7404 473.849 23.8285 473.687 23.9166 473.54Z" fill="#E3B66A"/>
<path d="M15.8463 473.291C15.8463 473.291 15.7727 473.394 15.7285 473.438C15.7727 473.394 15.8021 473.335 15.8463 473.291Z" fill="#E3B66A"/>
<path d="M32.6359 445.972C31.2957 455.603 28.6006 464.866 24.2266 472.952C28.5859 464.866 31.2957 455.603 32.6359 445.972Z" fill="#E3B66A"/>
<path d="M32.7238 445.354C32.6945 445.516 32.6798 445.692 32.6504 445.853C32.6798 445.677 32.6945 445.516 32.7238 445.354Z" fill="#E3B66A"/>
<path d="M32.799 444.752C32.7843 444.898 32.7696 445.03 32.7402 445.177C32.7549 445.03 32.7696 444.898 32.799 444.752Z" fill="#E3B66A"/>
<path d="M32.9446 443.546C32.9446 443.649 32.9151 443.767 32.9004 443.87C32.9004 443.767 32.9298 443.649 32.9446 443.546Z" fill="#E3B66A"/>
<path d="M33.0049 443.002C33.0049 443.075 33.005 443.149 32.9902 443.223C32.9902 443.149 33.0049 443.075 33.0049 443.002Z" fill="#E3B66A"/>
<path d="M27.5846 428.416C27.5699 429.96 27.5257 431.504 27.4668 433.048C27.5257 431.504 27.5551 429.96 27.5846 428.416Z" fill="#E3B66A"/>
<path d="M33.6816 428.769C33.6816 428.769 33.6816 428.887 33.6816 428.946C33.6816 428.887 33.6816 428.828 33.6816 428.769Z" fill="#E3B66A"/>
<path d="M33.6816 428.593C33.6816 428.593 33.6816 428.71 33.6816 428.769C33.6816 428.71 33.6816 428.652 33.6816 428.593Z" fill="#E3B66A"/>
<path d="M27.584 427.784C27.584 427.901 27.584 428.019 27.584 428.151C27.584 428.034 27.584 427.901 27.584 427.784Z" fill="#E3B66A"/>
<path d="M32.7988 415.433C33.2848 419.491 33.5794 423.667 33.6677 427.887C33.5794 423.682 33.2848 419.506 32.7988 415.433Z" fill="#E3B66A"/>
<path d="M32.7246 414.919C32.7393 415.051 32.754 415.183 32.7687 415.33C32.754 415.198 32.7393 415.065 32.7246 414.919Z" fill="#E3B66A"/>
<path d="M32.6074 413.889C32.6074 414.007 32.6368 414.139 32.6515 414.242C32.6368 414.124 32.6221 414.007 32.6074 413.889Z" fill="#E3B66A"/>
<path d="M32.5332 413.36C32.5479 413.478 32.5626 413.595 32.5773 413.698C32.5773 413.595 32.5479 413.478 32.5332 413.36Z" fill="#E3B66A"/>
<path d="M32.459 412.831C32.459 412.934 32.4884 413.037 32.5032 413.155C32.5032 413.052 32.4737 412.934 32.459 412.831Z" fill="#E3B66A"/>
<path d="M32.2676 411.581C32.2676 411.581 32.2823 411.699 32.2971 411.772C32.2971 411.714 32.2823 411.655 32.2676 411.581Z" fill="#E3B66A"/>
<path d="M32.1797 410.993C32.1797 411.067 32.1944 411.155 32.2092 411.228C32.2092 411.14 32.1797 411.067 32.1797 410.993Z" fill="#E3B66A"/>
<path d="M31.9297 409.39C31.9297 409.39 31.9444 409.537 31.9591 409.611C31.9591 409.537 31.9297 409.464 31.9297 409.39Z" fill="#E3B66A"/>
<path d="M31.8262 408.861C31.8262 408.861 31.8556 408.993 31.8556 409.067C31.8556 408.993 31.8262 408.935 31.8262 408.861Z" fill="#E3B66A"/>
<path d="M31.7383 408.332C31.7383 408.332 31.7677 408.449 31.7677 408.494C31.7677 408.435 31.7383 408.376 31.7383 408.332Z" fill="#E3B66A"/>
<path d="M31.207 405.509C31.207 405.509 31.2365 405.626 31.2365 405.671C31.2365 405.612 31.207 405.553 31.207 405.509Z" fill="#E3B66A"/>
<path d="M31.0898 404.979C31.0898 404.979 31.1193 405.097 31.134 405.141C31.134 405.082 31.1046 405.023 31.0898 404.979Z" fill="#E3B66A"/>
<path d="M30.9727 404.45C30.9727 404.45 31.0021 404.568 31.0168 404.627C31.0168 404.568 30.9874 404.509 30.9727 404.45Z" fill="#E3B66A"/>
<path d="M30.8691 403.935C30.8691 403.935 30.8986 404.053 30.8986 404.097C30.8986 404.038 30.8691 403.98 30.8691 403.935Z" fill="#E3B66A"/>
<path d="M25.4936 378.955C25.4641 378.866 25.4494 378.793 25.4199 378.69C27.4818 386.836 29.3963 394.613 30.6334 402.891C29.411 394.702 27.5112 387.027 25.4936 378.955Z" fill="#E3B66A"/>
<path d="M22.2246 369.692C25.7739 369.956 24.7277 375.926 25.4199 378.69C24.7277 375.926 25.7592 369.956 22.2246 369.692Z" fill="#E3B66A"/>
<path d="M21.5916 369.721C20.4134 369.942 19.4709 371 19.4414 372.206C19.4709 371 20.3987 369.942 21.5916 369.721Z" fill="#E3B66A"/>
<path d="M110.116 520.091C110.116 520.267 110.116 520.444 110.116 520.62C110.116 520.341 110.087 519.297 110.116 520.003C110.087 518.518 109.94 517.738 109.984 517.871C109.94 517.488 109.91 517.091 109.895 516.724C109.895 516.886 109.895 517.047 109.895 517.194C109.895 516.812 109.866 516.43 109.851 516.048C109.851 516.356 109.851 516.665 109.866 516.974C109.866 516.371 109.837 515.768 109.807 515.165C109.807 515.283 109.807 515.386 109.807 515.504C109.807 515.136 109.763 514.768 109.778 514.401C138.437 443.119 43.696 375.617 76.3465 308.938C108.82 291.162 107.038 247.655 111.825 214.778C127.259 181.24 111.221 255.359 111.427 266.666C112.252 302.704 60.1759 315.437 79.8369 355.018C92.959 404.509 149.762 480.833 110.057 520.106L110.116 520.091Z" fill="#E3B66A"/>
<path d="M109.807 514.474C109.807 514.753 109.748 515.032 109.719 515.325C109.748 515.047 109.792 514.753 109.807 514.474Z" fill="#E3B66A"/>
<path d="M109.822 514.665C109.822 514.665 109.822 514.724 109.822 514.768C109.822 514.739 109.822 514.695 109.822 514.665Z" fill="#E3B66A"/>
<path d="M119.012 508.945C119.012 508.813 118.968 508.681 118.953 508.52C118.982 508.74 119.188 509.429 119.012 508.945Z" fill="#E3B66A"/>
<path d="M116.434 491.743C111.265 490.611 113.415 484.95 114.402 481.436C143.415 414.184 203.355 361.59 195.049 280.605C198.436 248.463 179.762 206.045 199.762 178.961C204.754 177.388 208.141 196.781 201.779 190.106C183.355 192.135 206.904 278.84 199.29 308.703C200.351 380.528 143.12 433.636 116.434 491.743Z" fill="#E3B66A"/>
<path d="M192.635 238.642C192.797 243.185 192.988 247.728 193.371 252.257C192.974 247.728 192.782 243.185 192.635 238.642Z" fill="#E3B66A"/>
<path d="M191.279 209.235C191.323 211.749 191.412 214.249 191.544 216.748C191.397 214.249 191.309 211.735 191.279 209.235Z" fill="#E3B66A"/>
<path d="M133.297 536.117C134.829 536.279 136.36 536.382 137.907 536.456C136.36 536.382 134.829 536.265 133.297 536.117Z" fill="#E3B66A"/>
<path d="M146.11 536.662C144.622 536.647 143.15 536.632 141.662 536.588C143.15 536.617 144.622 536.647 146.11 536.662Z" fill="#E3B66A"/>
<path d="M128.408 535.412C129.822 535.676 131.221 535.882 132.635 536.044C131.221 535.882 129.807 535.676 128.408 535.412Z" fill="#E3B66A"/>
<path d="M149.086 536.706C148.1 536.691 147.098 536.676 146.111 536.661C147.098 536.661 148.1 536.691 149.086 536.706Z" fill="#E3B66A"/>
<path d="M157.406 537.103C157.863 537.132 158.334 537.161 158.791 537.191C158.334 537.176 157.863 537.147 157.406 537.103Z" fill="#E3B66A"/>
<path d="M178.76 535.338C178.422 535.412 178.083 535.485 177.744 535.544C178.083 535.485 178.436 535.412 178.76 535.338Z" fill="#E3B66A"/>
<path d="M133.195 531.795C135.08 532.001 136.951 532.177 138.836 532.265C136.951 532.177 135.08 531.986 133.195 531.795Z" fill="#E3B66A"/>
<path d="M143.989 532.295C152.325 531.853 160.705 532.942 168.981 531.736C159.688 532.956 150.278 531.853 140.926 532.339C141.942 532.353 142.958 532.339 143.989 532.295Z" fill="#E3B66A"/>
<path d="M229.468 506.77C229.468 506.77 229.35 506.843 229.291 506.873C229.35 506.843 229.409 506.814 229.468 506.77Z" fill="#E3B66A"/>
<path d="M229.659 506.652C229.659 506.652 229.556 506.711 229.512 506.74C229.571 506.711 229.615 506.682 229.659 506.652Z" fill="#E3B66A"/>
<path d="M253.502 491.537C262.442 484.186 271.573 477.084 280.306 469.497C264.666 483.23 248.304 495.86 230.277 506.27C237.862 501.094 246.094 496.948 253.502 491.537Z" fill="#E3B66A"/>
<path d="M318.819 426.52C325.034 416.771 333.369 408.655 340.998 400.054C332.412 409.758 322.839 418.859 316.58 430.328C317.302 429.049 318.038 427.769 318.804 426.52H318.819Z" fill="#E3B66A"/>
<path d="M341.19 399.833C341.19 399.833 341.057 399.966 340.998 400.039C341.057 399.966 341.131 399.907 341.19 399.833Z" fill="#E3B66A"/>
<path d="M345.755 397.51C344.312 397.495 342.913 398.245 341.734 399.333C342.913 398.26 344.312 397.481 345.755 397.51Z" fill="#E3B66A"/>
<path d="M293.959 450.706C293.959 451.897 294.681 452.618 295.549 452.838C294.681 452.603 293.959 451.883 293.959 450.706Z" fill="#E3B66A"/>
<path d="M306.049 443.781C306.535 444.384 307.021 444.81 307.536 445.075C307.036 444.81 306.535 444.399 306.049 443.781Z" fill="#E3B66A"/>
<path d="M306.993 438.429C307.994 437.694 308.996 436.959 309.982 436.209C308.966 436.974 307.935 437.738 306.904 438.473L306.978 438.414L306.993 438.429Z" fill="#E3B66A"/>
<path d="M296.271 435.944C296.271 435.944 296.241 436.047 296.227 436.106C296.227 436.047 296.256 436.003 296.271 435.944Z" fill="#E3B66A"/>
<path d="M310.395 435.9C310.395 435.9 310.247 436.018 310.174 436.062C310.247 436.003 310.321 435.944 310.395 435.9Z" fill="#E3B66A"/>
<path d="M296.566 434.93C296.551 435.003 296.522 435.092 296.492 435.18C296.507 435.106 296.536 435.018 296.566 434.93Z" fill="#E3B66A"/>
<path d="M296.875 433.945C296.845 434.048 296.801 434.165 296.771 434.268C296.801 434.165 296.845 434.062 296.875 433.945Z" fill="#E3B66A"/>
<path d="M297.022 433.445C296.978 433.562 296.948 433.68 296.904 433.797C296.934 433.68 296.978 433.562 297.022 433.445Z" fill="#E3B66A"/>
<path d="M297.668 431.533C297.624 431.68 297.566 431.827 297.521 431.974C297.58 431.827 297.624 431.68 297.668 431.533Z" fill="#E3B66A"/>
<path d="M325.607 433.239C326.417 432.504 327.227 431.769 328.023 431.019C327.213 431.754 326.388 432.563 325.607 433.239Z" fill="#E3B66A"/>
<path d="M323.192 396.937C331.955 389.997 341.44 384.13 350.512 377.69C329.628 391.879 305.873 406.053 297.67 431.519C302.515 417.859 311.69 405.685 323.178 396.951L323.192 396.937Z" fill="#E3B66A"/>
<path d="M347.109 394.217C347.109 394.217 347.05 394.349 347.035 394.408C347.05 394.334 347.079 394.275 347.109 394.217Z" fill="#E3B66A"/>
<path d="M347.256 393.834C347.227 393.908 347.197 393.996 347.168 394.084C347.197 394.011 347.227 393.923 347.256 393.834Z" fill="#E3B66A"/>
<path d="M347.39 393.452C347.346 393.555 347.317 393.643 347.287 393.746C347.317 393.643 347.361 393.555 347.39 393.452Z" fill="#E3B66A"/>
<path d="M347.522 393.084C347.492 393.187 347.448 393.305 347.404 393.422C347.448 393.305 347.478 393.202 347.522 393.084Z" fill="#E3B66A"/>
<path d="M354.605 375.411C354.605 375.411 354.561 375.411 354.531 375.411C355.93 375.529 357.035 376.279 357.58 377.602C357.05 376.323 355.989 375.573 354.605 375.426V375.411Z" fill="#E3B66A"/>
<path d="M354.458 375.396C354.355 375.396 354.238 375.396 354.135 375.396C354.238 375.396 354.34 375.396 354.458 375.396Z" fill="#E3B66A"/>
<path d="M114.844 502.976C121.162 485.7 118.599 510.534 116.523 516.827C108.82 523.943 114.049 508.078 114.844 502.976Z" fill="#E3B66A"/>
<path d="M70.1755 313.643C68.0253 313.452 66.42 311.04 66.5673 309.379C41.1479 297.337 18.129 255.712 31.9727 230.746C67.4509 240.994 71.604 300.719 81.9279 298.748C82.6053 298.748 83.4596 299.234 83.9456 299.866C86.7438 303.997 73.0768 312.32 70.1755 313.613V313.643ZM67.2153 301.16C68.1578 274.503 53.887 259.197 35.7724 242.082C38.762 272.459 37.4366 285.089 67.2153 301.16Z" fill="#E3B66A"/>
<path d="M67.4668 312.055C68.0559 312.819 68.8954 313.393 69.9115 313.599C68.8954 313.378 68.0412 312.819 67.4668 312.055Z" fill="#E3B66A"/>
<path d="M111.855 214.749L111.885 214.778C122.017 195.826 145.154 190.885 139.66 157.641C136.685 92.0944 117.275 109.724 108.91 163.729C109.013 161.582 109.219 159.45 109.543 157.333C102.621 169.228 120.279 198.237 112.783 199.325C93.0482 168.434 109.661 119.634 132.267 95.0792C149.115 126.559 161.634 207.25 111.87 214.749H111.855Z" fill="#E3B66A"/>
<path d="M137.937 106.71C137.937 106.636 137.907 106.562 137.893 106.489C137.893 106.562 137.922 106.636 137.937 106.71Z" fill="#E3B66A"/>
<path d="M104.109 163.582C104.05 165.419 104.065 167.272 104.168 169.125C104.065 167.272 104.05 165.434 104.109 163.582Z" fill="#E3B66A"/>
<path d="M139.527 156.201C139.527 156.201 139.527 156.318 139.542 156.362C139.542 156.304 139.542 156.259 139.527 156.201Z" fill="#E3B66A"/>
<path d="M139.439 155.289C139.439 155.363 139.454 155.451 139.469 155.524C139.469 155.451 139.454 155.363 139.439 155.289Z" fill="#E3B66A"/>
<path d="M139.381 154.848C139.381 154.936 139.396 155.01 139.41 155.098C139.41 155.01 139.396 154.936 139.381 154.848Z" fill="#E3B66A"/>
<path d="M139.336 154.407C139.336 154.495 139.351 154.569 139.365 154.657C139.365 154.583 139.351 154.495 139.336 154.407Z" fill="#E3B66A"/>
<path d="M139.277 153.966C139.277 154.054 139.292 154.142 139.307 154.231C139.307 154.142 139.292 154.054 139.277 153.966Z" fill="#E3B66A"/>
<path d="M139.232 153.539C139.232 153.628 139.247 153.716 139.262 153.804C139.262 153.716 139.247 153.628 139.232 153.539Z" fill="#E3B66A"/>
<path d="M186.656 358.032C159.219 355.665 142.753 322.465 128.895 302.424C128.762 305.115 131.678 307.409 133.284 309.526C119.632 283.589 176.023 298.396 178.364 319.627C187.156 331.669 184.388 347.784 197.613 351.224C199.675 356.003 188.968 360.973 186.641 358.017L186.656 358.032ZM139.366 304.395C152.473 320.406 162.724 344.02 184.344 349.533C181.516 332.948 164.358 291.794 139.366 304.395Z" fill="#E3B66A"/>
<path d="M182.045 357.635C182.045 357.635 182.148 357.664 182.207 357.664C182.148 357.664 182.104 357.65 182.045 357.635Z" fill="#E3B66A"/>
<path d="M181.84 357.605C181.84 357.605 181.943 357.635 181.987 357.635C181.943 357.635 181.884 357.605 181.84 357.605Z" fill="#E3B66A"/>
<path d="M181.088 357.444C181.324 357.488 181.559 357.547 181.795 357.591C181.559 357.547 181.324 357.503 181.088 357.444Z" fill="#E3B66A"/>
<path d="M154.27 338.153C154.358 338.256 154.446 338.359 154.549 338.477C154.461 338.374 154.373 338.256 154.27 338.153Z" fill="#E3B66A"/>
<path d="M195.579 300.278C180.602 290.853 208.481 290.985 214.224 288.677C205.462 262.961 247.184 217.381 267.169 225.806C258.642 265.137 241.47 302.263 195.579 300.278ZM223.134 264.328C203.032 301.086 248.554 280.458 250.881 257.079C263.679 216.396 235.167 245.038 223.134 264.328Z" fill="#E3B66A"/>
<path d="M267.199 225.997C267.199 225.997 267.185 225.879 267.17 225.835C267.17 225.894 267.185 225.953 267.199 225.997Z" fill="#E3B66A"/>
<path d="M190.308 239.259C184.108 237.877 187.539 231.643 192.355 230.452C196.302 210.014 177.525 159.303 212.384 151.966C223.135 182.872 229.409 226.335 190.308 239.259ZM203.872 163.038C189.557 179.093 195.05 206.044 199.557 225.762C221.648 214.705 216.169 162.596 203.872 163.038Z" fill="#E3B66A"/>
<path d="M190.219 191.268C190.219 197.296 190.557 203.295 191.279 209.25C190.543 203.295 190.233 197.281 190.219 191.268Z" fill="#E3B66A"/>
<path d="M190.219 190.68C190.219 190.87 190.219 191.061 190.219 191.267C190.219 191.076 190.219 190.885 190.219 190.68Z" fill="#E3B66A"/>
<path d="M190.072 186.401C190.072 186.401 190.072 186.504 190.072 186.563C190.072 186.504 190.072 186.46 190.072 186.401Z" fill="#E3B66A"/>
<path d="M190.072 186.019C190.072 186.019 190.072 186.151 190.072 186.225C190.072 186.151 190.072 186.092 190.072 186.019Z" fill="#E3B66A"/>
<path d="M198.246 521.341C198.644 521.723 199.1 522.032 199.601 522.208C199.1 522.046 198.629 521.723 198.246 521.341Z" fill="#E3B66A"/>
<path d="M197.244 517.062C197.112 517.43 197.024 517.841 196.994 518.268C197.009 517.841 197.097 517.444 197.244 517.062Z" fill="#E3B66A"/>
<path d="M218.349 508.902C217.244 510.328 216.096 511.857 214.844 513.372C216.081 511.872 217.244 510.328 218.349 508.902Z" fill="#E3B66A"/>
<path d="M218.804 508.255C218.73 508.358 218.657 508.461 218.598 508.549C218.671 508.446 218.745 508.343 218.804 508.255Z" fill="#E3B66A"/>
<path d="M219.275 507.564C219.129 507.769 218.982 507.989 218.85 508.195C218.996 507.989 219.143 507.769 219.275 507.564Z" fill="#E3B66A"/>
<path d="M220.394 505.77C220.335 505.887 220.262 505.99 220.203 506.107C220.277 505.99 220.335 505.887 220.394 505.77Z" fill="#E3B66A"/>
<path d="M223.223 499.801C222.457 501.83 221.529 503.8 220.41 505.726C221.529 503.8 222.472 501.815 223.223 499.801Z" fill="#E3B66A"/>
<path d="M223.37 499.418C223.34 499.521 223.296 499.624 223.252 499.727C223.296 499.624 223.326 499.521 223.37 499.418Z" fill="#E3B66A"/>
<path d="M226.05 485.303C226.138 483.436 226.153 481.539 226.08 479.642C226.286 485.774 225.77 491.817 223.988 497.551C225.211 493.596 225.844 489.479 226.05 485.303Z" fill="#E3B66A"/>
<path d="M181.221 483.818C181.221 483.921 181.221 484.024 181.221 484.142C181.221 484.039 181.221 483.936 181.221 483.818Z" fill="#E3B66A"/>
<path d="M191.353 452.147C185.624 461.866 181.486 472.526 181.221 483.686C181.486 472.541 185.624 461.851 191.353 452.147Z" fill="#E3B66A"/>
<path d="M226.064 479.128C226.064 479.289 226.064 479.451 226.064 479.597C226.064 479.436 226.064 479.275 226.064 479.128Z" fill="#E3B66A"/>
<path d="M192.648 450.015C192.648 450.015 192.56 450.162 192.516 450.236C192.56 450.162 192.604 450.089 192.648 450.015Z" fill="#E3B66A"/>
<path d="M192.855 449.677C192.855 449.677 192.767 449.81 192.723 449.883C192.767 449.81 192.811 449.736 192.855 449.677Z" fill="#E3B66A"/>
<path d="M193.591 448.516C193.591 448.516 193.503 448.648 193.459 448.722C193.503 448.648 193.547 448.589 193.591 448.516Z" fill="#E3B66A"/>
<path d="M193.798 448.192C193.798 448.192 193.724 448.325 193.68 448.383C193.724 448.31 193.768 448.251 193.798 448.192Z" fill="#E3B66A"/>
<path d="M219.025 436.283C219.644 440.605 220.66 444.899 221.5 449.104C220.645 444.884 219.629 440.605 219.025 436.283Z" fill="#E3B66A"/>
<path d="M194.549 447.045C194.549 447.045 194.476 447.163 194.432 447.222C194.476 447.163 194.505 447.104 194.549 447.045Z" fill="#E3B66A"/>
<path d="M194.769 446.737C194.769 446.737 194.695 446.84 194.666 446.898C194.695 446.854 194.74 446.795 194.769 446.737Z" fill="#E3B66A"/>
<path d="M194.99 446.398C194.99 446.398 194.916 446.487 194.887 446.546C194.916 446.501 194.96 446.457 194.99 446.398Z" fill="#E3B66A"/>
<path d="M195.536 445.604C195.536 445.604 195.462 445.707 195.418 445.766C195.462 445.722 195.492 445.663 195.536 445.604Z" fill="#E3B66A"/>
<path d="M214.916 420.094C214.356 420.153 213.797 420.344 213.281 420.741C213.797 420.359 214.356 420.153 214.916 420.094Z" fill="#E3B66A"/>
<path d="M215.639 420.109C215.786 420.124 215.932 420.153 216.064 420.197C215.918 420.168 215.786 420.138 215.639 420.109Z" fill="#E3B66A"/>
<path d="M215.386 420.094C215.224 420.094 215.077 420.094 214.916 420.094C215.077 420.08 215.224 420.08 215.386 420.094Z" fill="#E3B66A"/>
<path d="M215.477 420.094C215.477 420.094 215.594 420.094 215.653 420.109C215.594 420.109 215.535 420.109 215.477 420.094Z" fill="#E3B66A"/>
<path d="M218.967 435.944C218.967 436.033 218.996 436.121 219.011 436.224C219.011 436.136 218.982 436.047 218.967 435.944Z" fill="#E3B66A"/>
<path d="M218.922 435.591C218.922 435.591 218.937 435.709 218.951 435.768C218.951 435.709 218.937 435.65 218.922 435.591Z" fill="#E3B66A"/>
<path d="M218.879 435.239C218.879 435.239 218.894 435.342 218.894 435.4C218.894 435.342 218.894 435.297 218.879 435.239Z" fill="#E3B66A"/>
<path d="M218.467 429.475C218.467 429.475 218.467 429.578 218.467 429.622C218.467 429.563 218.467 429.519 218.467 429.475Z" fill="#E3B66A"/>
<path d="M218.467 429.107C218.467 429.107 218.467 429.225 218.467 429.299C218.467 429.24 218.467 429.181 218.467 429.107Z" fill="#E3B66A"/>
<path d="M218.467 428.725C218.467 428.725 218.467 428.858 218.467 428.931C218.467 428.858 218.467 428.799 218.467 428.725Z" fill="#E3B66A"/>
<path d="M218.467 428.313C218.467 428.402 218.467 428.505 218.467 428.578C218.467 428.49 218.467 428.402 218.467 428.313Z" fill="#E3B66A"/>
<path d="M218.496 427.49V427.284C218.496 427.592 218.496 427.915 218.467 428.238C218.467 427.989 218.467 427.739 218.496 427.49Z" fill="#E3B66A"/>
<path d="M218.717 424.873C218.717 424.961 218.688 425.064 218.688 425.152C218.688 425.064 218.702 424.961 218.717 424.873Z" fill="#E3B66A"/>
<path d="M218.716 424.814C219.129 423.755 218.908 422.564 218.26 421.697C218.922 422.491 219.129 424.005 218.716 424.814Z" fill="#E3B66A"/>
<path d="M216.184 420.227C216.184 420.227 216.316 420.271 216.39 420.3C216.316 420.271 216.257 420.256 216.184 420.227Z" fill="#E3B66A"/>
<path d="M264.239 558.393C263.68 558.378 263.12 558.363 262.59 558.334C263.135 558.363 263.68 558.378 264.239 558.393Z" fill="#E3B66A"/>
<path d="M249.158 550.762C253.562 552.129 258.245 552.953 262.958 553.173C258.23 552.938 253.562 552.129 249.158 550.762Z" fill="#E3B66A"/>
<path d="M225.02 523.561C230.866 533.574 236.345 545.66 247.744 550.306C236.345 545.66 230.866 533.588 225.02 523.561Z" fill="#E3B66A"/>
<path d="M294.724 549.983C294.709 550.1 294.68 550.232 294.65 550.35C294.68 550.217 294.694 550.1 294.724 549.983Z" fill="#E3B66A"/>
<path d="M294.755 549.703C294.887 547.218 292.501 545.307 290.439 545.866C292.516 545.307 294.917 547.248 294.755 549.762V549.703Z" fill="#E3B66A"/>
<path d="M305.77 558.555C305.77 558.555 305.637 558.555 305.578 558.555C305.652 558.555 305.711 558.555 305.77 558.555Z" fill="#E3B66A"/>
<path d="M310.541 552.997C310.276 554.394 309.598 555.835 308.803 556.893C309.598 555.849 310.276 554.394 310.541 552.997Z" fill="#E3B66A"/>
<path d="M310.57 552.85C310.57 552.85 310.556 552.953 310.541 553.012C310.541 552.953 310.556 552.909 310.57 552.85Z" fill="#E3B66A"/>
<path d="M310.629 552.365C310.629 552.526 310.6 552.687 310.57 552.834C310.6 552.673 310.614 552.511 310.629 552.365Z" fill="#E3B66A"/>
<path d="M310.645 552.203C310.645 552.203 310.645 552.306 310.645 552.35C310.645 552.306 310.645 552.247 310.645 552.203Z" fill="#E3B66A"/>
<path d="M279.496 522.238C290.939 527.987 304.93 534.676 307.655 548.38C304.93 534.676 290.925 527.972 279.496 522.238Z" fill="#E3B66A"/>
<path d="M278.95 521.958C266.948 515.504 253.31 514.048 240.291 510.725C253.501 514.077 267.346 515.577 279.496 522.238C279.319 522.149 279.127 522.061 278.95 521.958Z" fill="#E3B66A"/>
<path d="M224.607 379.146C247.877 266.078 436.298 326.317 430.687 124.721C426.019 110.812 424.811 157.568 427.388 162.199C418.729 185.342 415.518 136.219 418.567 127.676C461.512 65.9521 424.192 226.217 406.549 240.538C365.342 310.937 239.924 301.645 224.607 379.131V379.146Z" fill="#E3B66A"/>
<path d="M367.418 277.414C404.796 242.803 477.917 256.477 495.575 196.237C498.3 191.826 501.717 180.637 508.491 185.078C506.4 251.875 411.438 250.345 367.418 277.429V277.414ZM501.407 199.105C498.845 204.104 496.164 209.059 492.998 213.705C498.079 211.691 506.179 190.106 501.407 199.105Z" fill="#E3B66A"/>
<path d="M326.844 294.337C351.586 204.795 280.629 185.842 302.22 128.558C306.903 119.678 312.278 130.146 311.247 136.028C306.019 189.68 355.503 240.053 326.844 294.323V294.337ZM303.604 158.259C303.869 152.731 304.031 147.158 303.795 141.63C302.131 147.026 302.308 152.789 303.604 158.259Z" fill="#E3B66A"/>
<path d="M45.242 197.546C38.4674 156.745 65.0797 133.396 75.5214 96.5495C84.5198 71.4658 76.243 38.1336 96.287 20.9749C95.1382 14.0791 87.1118 -0.84473 100.293 0.0374641C125.447 7.9331 105.123 21.1807 94.0632 32.0611C81.2651 61.1147 86.1987 96.5348 69.7041 124.927C46.6853 142.556 52.208 182.137 45.242 197.546ZM98.717 5.87465C99.3356 9.99156 100.322 18.6959 104.902 13.1969C110.528 11.2413 101.766 6.62451 98.717 5.87465Z" fill="#E3B66A"/>
<path d="M64.447 127.47C64.4176 120.766 76.0669 119.193 79.9549 113.914C64.8152 117.075 64.7416 100.299 67.6429 121.927C68.9831 113.532 38.8951 87.3747 51.9877 90.1977C64.9183 108.886 76.5677 113.458 92.7383 97.1671C113.916 94.5352 72.6796 133.146 64.447 127.456V127.47ZM82.8268 111.429C85.2568 109.253 87.5542 106.959 89.7486 104.548C87.0682 106.445 85.0359 109.033 82.8268 111.429Z" fill="#E3B66A"/>
<path d="M55.125 647.847C57.5256 645.363 57.0101 645.98 55.3312 648.406C55.2722 648.215 55.1986 648.024 55.125 647.847Z" fill="#E3B66A"/>
<path d="M77.1874 621.382C79.3817 619.97 77.6439 623.014 77.0254 624.043C77.2168 623.161 77.2905 622.264 77.1874 621.382Z" fill="#E3B66A"/>
<path d="M114.682 517.724C115.256 511.593 110.072 507.329 111.457 501.506C113.784 505.373 121.353 517.503 114.682 517.724Z" fill="#E3B66A"/>
<path d="M320.306 499.962C381.085 470.218 456.313 440.958 491.084 374.25C525.664 337.065 531.069 277.87 582.615 257.609C591.849 254.183 631.671 238.303 624.529 256.991C613.13 271.474 585.28 301.674 568.815 280.34C575.28 272.43 591.775 281.913 599.978 271.444C623.498 242.626 558.418 274.179 553.749 289.03C539.301 306.144 529.905 326.802 518.845 346.284C478.212 420.8 402.263 484.906 320.291 499.977L320.306 499.962Z" fill="#E3B66A"/>
<path d="M413.545 454.353C445.813 416.639 441.939 367.824 449.141 319.789C467.388 270.004 494.707 304.1 463.176 334.183C443.265 336.933 477.138 312.173 469.318 301.557C431.026 344.093 467.8 420.359 413.545 454.338V454.353Z" fill="#E3B66A"/>
<path d="M417.152 460.925C480.392 461.557 567.872 338.021 606.34 358.399C614.705 382.41 579.536 363.193 573.351 375.793C525.825 398.583 474.368 466.571 417.152 460.94V460.925ZM595.898 364.398C600.67 366.045 601.333 360.502 596.576 360.767C585.707 361.796 583.778 364.428 595.898 364.398Z" fill="#E3B66A"/>
<path d="M372.219 536.412C435.915 458.881 541.245 515.989 623.453 509.887C633.32 500.021 661.081 477.172 662.2 505.138C568.166 546.351 460.745 454.529 372.219 536.426V536.412ZM639.182 507.652C641.729 506.887 656.044 504.182 655.426 501.771C649.417 495.86 642.466 502.006 639.182 507.652Z" fill="#E3B66A"/>
<path d="M478.758 503.403C493.559 477.76 542.66 481.877 554.751 452.515C557.417 445.619 563.308 441.296 570.774 443.884C596.474 450.971 563.587 474.452 555.458 461.396C535.561 481.319 500.922 487.435 478.758 503.403ZM556.562 459.425C562.615 457.485 571.231 460.131 574.81 452.985C567.505 443.972 559.184 450.427 556.562 459.425Z" fill="#E3B66A"/>
<path d="M554.162 557.967C526.475 546.395 510.805 506.049 484.531 504.903C512.278 501.344 523.176 531.133 540.966 546.366C550.863 536.823 573.323 556.584 554.177 557.967H554.162ZM555.502 553.247C555.237 550.218 551.482 551.644 549.361 551.424C551.349 552.203 553.382 552.953 555.502 553.247Z" fill="#E3B66A"/>
<path d="M205.123 128.103C231.058 100.461 229.747 52.3369 240.012 15.4759C250.601 5.94816 260.306 25.0477 252.118 33.6344C250.439 39.795 240.822 38.4276 243.797 31.87C247.258 -0.0948677 230.277 131.337 205.138 128.103H205.123Z" fill="#E3B66A"/>
<path d="M116.979 499.124C116.994 498.654 117.745 498.683 117.716 499.154C117.701 499.624 116.95 499.595 116.979 499.124Z" fill="#E3B66A"/>
<path d="M59.5583 652.391C44.8604 635.982 75.3461 615.927 81.8703 601.106C92.0027 567.597 108.645 547.116 112.886 513.548C114.624 501.521 120.471 502.771 119.013 514.195C111.237 536.147 124.197 527.869 140.529 531.677C160.382 531.839 151.221 547.027 135.905 542.116C92.0469 559.01 90.5447 625.057 59.5583 652.405V652.391Z" fill="#E3B66A"/>
<path d="M119.027 508.945C119.027 508.813 118.982 508.666 118.953 508.52C118.997 508.754 119.173 509.4 119.027 508.945Z" fill="#E3B66A"/>
<path d="M19.293 396.349C20.427 386.159 32.1352 375.764 30.4563 362.516C22.1501 371.544 24.5212 397.936 20.2503 375.249C19.5581 367.648 23.0926 359.193 29.8378 355.312C47.9082 353.165 34.0498 405.7 19.293 396.349Z" fill="#E3B66A"/>
<path d="M106.303 497.624C106.303 497.624 106.303 497.712 106.303 497.756C106.303 497.712 106.303 497.668 106.303 497.624Z" fill="#E3B66A"/>
<path d="M106.317 497.477C106.317 497.477 106.317 497.566 106.303 497.624C106.303 497.566 106.303 497.522 106.317 497.477Z" fill="#E3B66A"/>
<path d="M56.3772 284.722C48.6159 282.707 43.2403 240.112 52.6217 266.313C51.9295 272.18 63.0928 282.354 56.3772 284.722Z" fill="#E3B66A"/>
<path d="M119.984 175.785C119.999 166.125 118.674 143.982 124.726 136.219C128.364 144.217 129.41 171.771 119.984 175.785Z" fill="#E3B66A"/>
<path d="M171.692 335.08C167.554 328.787 152.503 319.171 158.659 311.437C163.165 311.687 187.539 341.608 171.692 335.08Z" fill="#E3B66A"/>
<path d="M222.545 273.768C220.646 267.989 235.52 254.771 241.058 256.227C239.85 261.887 228.127 272.724 222.545 273.768Z" fill="#E3B66A"/>
<path d="M199.349 212.043C194.813 205.853 197.258 181.843 204.342 177.726C206.271 185.107 205.093 206.75 199.349 212.043Z" fill="#E3B66A"/>
<path d="M201.043 504.241C200.631 495.154 198.26 464.072 210.484 462.601C214.151 465.174 211.824 475.555 208.215 468.85C203.488 478.569 211.721 500.536 201.043 504.241Z" fill="#E3B66A"/>
<path d="M269.629 550.306C258.407 543.102 249.453 531.633 236.729 530.221C248.024 514.93 263.488 549.88 274.431 540.764C279.011 543.101 273.65 550.997 269.629 550.306Z" fill="#E3B66A"/>
<path d="M582.791 270.195C583.513 261.152 608.004 259.153 590.935 269.077C588.638 270.268 584.602 273.65 582.791 270.195Z" fill="#E3B66A"/>
<path d="M60.7949 542.102C61.546 524.031 76.3617 500.477 68.998 478.613C75.0068 467.086 55.5372 439.179 71.0893 438.047C78.8359 469.585 80.7063 514.945 60.8096 542.102H60.7949Z" fill="#E3B66A"/>
<path d="M246.051 453.794C259.04 433.283 273.075 411.463 272.825 383.248C281.514 369.794 293.488 352.415 306.816 344.784C314.106 340.741 317.508 352.518 309.143 353.415C267.641 371.132 284.003 433.856 246.051 453.779V453.794Z" fill="#E3B66A"/>
<path d="M381.881 432.886C370.953 418.389 400.481 398.642 399.627 381.307C373.854 346.843 389.598 328.567 417.83 300.983C407.565 305.35 412.352 296.793 419.48 296.411C431.851 299.057 405.975 317.921 402.411 324.112C361.218 366.736 442.057 360.487 381.881 432.886Z" fill="#E3B66A"/>
</svg>
