<svg width="27" height="29" viewBox="0 0 27 29" fill="none" xmlns="http://www.w3.org/2000/svg">
<path fill-rule="evenodd" clip-rule="evenodd" d="M15.4319 18.8227C17.0177 18.8227 18.3084 20.1042 18.3084 21.6794V25.7307C18.3084 26.0692 18.5798 26.3405 18.9275 26.3484H21.4378C23.416 26.3484 25.0242 24.76 25.0242 22.8081V11.318C25.015 10.6463 24.6949 10.0141 24.1457 9.59395L15.4622 2.66878C14.2966 1.74551 12.6661 1.74551 11.4965 2.67141L2.87234 9.59132C2.30205 10.0246 1.982 10.6568 1.97541 11.3404V22.8081C1.97541 24.76 3.58356 26.3484 5.5618 26.3484H8.09585C8.45278 26.3484 8.74253 26.0653 8.74253 25.7176C8.74253 25.6412 8.75175 25.5648 8.76756 25.4923V21.6794C8.76756 20.1134 10.0504 18.8332 11.6243 18.8227H15.4319ZM21.4378 28.324H18.9038C17.4523 28.2898 16.3328 27.1505 16.3328 25.7307V21.6794C16.3328 21.1934 15.9285 20.7983 15.4319 20.7983H11.6309C11.1449 20.8009 10.7432 21.1974 10.7432 21.6794V25.7176C10.7432 25.8163 10.73 25.9112 10.7023 26.0007C10.5601 27.3046 9.44585 28.324 8.09585 28.324H5.5618C2.49434 28.324 -0.000198364 25.8493 -0.000198364 22.8081V11.3312C0.0129724 10.022 0.616192 8.82346 1.658 8.03454L10.2651 1.12649C12.1603 -0.374975 14.8011 -0.374975 16.6924 1.12385L25.3614 8.03849C26.3795 8.81424 26.9827 10.0101 26.9998 11.3035V22.8081C26.9998 25.8493 24.5053 28.324 21.4378 28.324Z" fill="#6A6966"/>
</svg>
