<svg width="39" height="37" viewBox="0 0 39 37" fill="none" xmlns="http://www.w3.org/2000/svg">
<path fill-rule="evenodd" clip-rule="evenodd" d="M19.4998 3C19.3178 3 18.8698 3.05 18.6318 3.526L14.9798 10.828C14.4018 11.982 13.2878 12.784 11.9998 12.968L3.82383 14.146C3.28383 14.224 3.09983 14.624 3.04383 14.792C2.99383 14.954 2.91383 15.366 3.28583 15.722L9.19783 21.402C10.1398 22.308 10.5678 23.614 10.3438 24.892L8.95183 32.912C8.86583 33.414 9.17983 33.706 9.31983 33.806C9.46783 33.918 9.86383 34.14 10.3538 33.884L17.6638 30.094C18.8158 29.5 20.1878 29.5 21.3358 30.094L28.6438 33.882C29.1358 34.136 29.5318 33.914 29.6818 33.806C29.8218 33.706 30.1358 33.414 30.0498 32.912L28.6538 24.892C28.4298 23.614 28.8578 22.308 29.7998 21.402L35.7118 15.722C36.0858 15.366 36.0058 14.952 35.9538 14.792C35.8998 14.624 35.7158 14.224 35.1758 14.146L26.9998 12.968C25.7138 12.784 24.5998 11.982 24.0218 10.826L20.3658 3.526C20.1298 3.05 19.6818 3 19.4998 3ZM9.89383 37C9.06783 37 8.24783 36.74 7.54583 36.228C6.33383 35.34 5.73983 33.874 5.99783 32.398L7.38983 24.378C7.44183 24.08 7.33983 23.778 7.11983 23.566L1.20783 17.886C0.119832 16.844 -0.270168 15.304 0.189832 13.874C0.653832 12.428 1.88183 11.394 3.39583 11.178L11.5718 10C11.8878 9.956 12.1598 9.762 12.2958 9.486L15.9498 2.182C16.6238 0.836 17.9838 0 19.4998 0C21.0158 0 22.3758 0.836 23.0498 2.182L26.7058 9.484C26.8438 9.762 27.1138 9.956 27.4278 10L35.6038 11.178C37.1178 11.394 38.3458 12.428 38.8098 13.874C39.2698 15.304 38.8778 16.844 37.7898 17.886L31.8778 23.566C31.6578 23.778 31.5578 24.08 31.6098 24.376L33.0038 32.398C33.2598 33.876 32.6658 35.342 31.4518 36.228C30.2218 37.13 28.6198 37.252 27.2618 36.544L19.9558 32.758C19.6698 32.61 19.3278 32.61 19.0418 32.758L11.7358 36.546C11.1518 36.85 10.5218 37 9.89383 37Z" fill="#B47C21"/>
</svg>
