<svg width="934" height="934" viewBox="0 0 934 934" fill="none" xmlns="http://www.w3.org/2000/svg">
<path d="M758.333 718.96H175C169.365 718.96 164.792 714.387 164.792 708.752V446.245C164.792 440.61 169.365 436.037 175 436.037H758.333C763.969 436.037 768.542 440.61 768.542 446.245V708.752C768.542 714.387 763.969 718.96 758.333 718.96ZM185.213 698.544H748.133V456.464H185.213V698.544Z" fill="#F0B800"/>
<path d="M802.08 456.453H131.253C125.618 456.453 121.045 451.88 121.045 446.245V358.745C121.045 353.11 125.618 348.537 131.253 348.537H802.08C807.715 348.537 812.288 353.11 812.288 358.745V446.245C812.288 451.881 807.715 456.453 802.08 456.453ZM141.453 436.037H791.867V368.955H141.453V436.037Z" fill="#F0B800"/>
<path d="M743.747 368.96H422.92C417.285 368.96 412.712 364.387 412.712 358.752V344.168C412.712 250.085 489.253 173.541 583.338 173.541C677.424 173.541 753.965 250.082 753.965 344.168V358.752C753.965 364.387 749.392 368.96 743.757 368.96H743.747ZM433.12 348.544H733.533V344.169C733.533 261.346 666.148 193.956 583.32 193.956C500.492 193.956 433.107 261.341 433.107 344.169L433.12 348.544Z" fill="#F0B800"/>
<path d="M583.333 193.96C537.5 193.96 500.208 156.668 500.208 110.835C500.208 65.0014 537.5 27.7094 583.333 27.7094C629.167 27.7094 666.459 65.0014 666.459 110.835C666.459 156.668 629.167 193.96 583.333 193.96ZM583.333 48.12C548.755 48.12 520.625 76.2507 520.625 110.828C520.625 145.405 548.756 173.536 583.333 173.536C617.911 173.536 646.041 145.405 646.041 110.828C646.041 76.2507 617.911 48.12 583.333 48.12Z" fill="#F0B800"/>
<path d="M525 558.547H175C169.365 558.547 164.792 553.974 164.792 548.338C164.792 542.703 169.365 538.13 175 538.13H525C530.635 538.13 535.208 542.703 535.208 548.338C535.208 553.974 530.635 558.547 525 558.547Z" fill="#F0B800"/>
<path d="M422.92 631.453H175C169.365 631.453 164.792 626.88 164.792 621.245C164.792 615.61 169.365 611.037 175 611.037H422.92C428.555 611.037 433.128 615.61 433.128 621.245C433.128 626.88 428.555 631.453 422.92 631.453Z" fill="#F0B800"/>
<path d="M350 368.96H175C169.365 368.96 164.792 364.387 164.792 358.752V300.418C164.792 294.783 169.365 290.21 175 290.21H350C355.635 290.21 360.208 294.783 360.208 300.418V358.752C360.208 364.387 355.635 368.96 350 368.96ZM185.213 348.544H339.8V310.627H185.213V348.544Z" fill="#F0B800"/>
<path d="M350 252.293H175C169.365 252.293 164.792 247.72 164.792 242.085V227.501C164.792 173.626 208.625 129.793 262.5 129.793C316.374 129.793 360.208 173.626 360.208 227.501V242.085C360.208 247.721 355.635 252.293 349.999 252.293H350ZM185.213 231.877H339.8V227.502C339.8 184.882 305.128 150.21 262.508 150.21C219.888 150.21 185.216 184.882 185.216 227.502L185.213 231.877Z" fill="#F0B800"/>
<path d="M379.173 252.293H145.84C140.205 252.293 135.632 247.72 135.632 242.085C135.632 236.45 140.205 231.877 145.84 231.877H379.173C384.809 231.877 389.382 236.45 389.382 242.085C389.382 247.72 384.809 252.293 379.173 252.293Z" fill="#F0B800"/>
<path d="M320.827 310.627H204.16C198.525 310.627 193.952 306.054 193.952 300.418V242.085C193.952 236.45 198.525 231.877 204.16 231.877H320.827C326.462 231.877 331.035 236.45 331.035 242.085V300.418C331.035 306.054 326.462 310.627 320.827 310.627ZM214.368 290.211H310.619V252.293H214.368V290.211Z" fill="#F0B800"/>
<path d="M262.507 150.213C256.871 150.213 252.298 145.64 252.298 140.005V96.2558C252.298 90.6203 256.871 86.0475 262.507 86.0475C268.142 86.0475 272.715 90.6204 272.715 96.2558V140.005C272.715 145.641 268.142 150.213 262.507 150.213Z" fill="#F0B800"/>
<path d="M320.827 106.459H204.16C198.525 106.459 193.952 101.886 193.952 96.2504C193.952 90.6151 198.525 86.0422 204.16 86.0422H320.827C326.462 86.0422 331.035 90.6151 331.035 96.2504C331.035 101.886 326.462 106.459 320.827 106.459Z" fill="#F0B800"/>
</svg>
