<svg width="677" height="493" viewBox="0 0 677 493" fill="none" xmlns="http://www.w3.org/2000/svg">
<path d="M673.547 147.667C669.536 137.984 661.797 130.323 652.068 126.416C642.344 122.51 631.459 122.682 621.86 126.9L565.511 151.75L383.391 90.6137C380.677 89.6241 377.703 89.6241 374.99 90.6137L332.406 109.28C328.26 111.088 325.531 115.135 325.406 119.655C325.281 124.176 327.781 128.364 331.822 130.4L461.322 196.785L363.557 239.837L271.74 195.739V195.734C268.63 194.296 265.047 194.296 261.937 195.734L226.125 211.832C222.277 213.515 219.631 217.134 219.198 221.311C218.761 225.488 220.605 229.577 224.021 232.015L351.073 322.665C354.521 324.988 358.901 325.431 362.74 323.832L654.407 195.498C663.053 191.42 669.833 184.223 673.385 175.348C676.932 166.473 676.99 156.582 673.542 147.665L673.547 147.667Z" fill="#F0B800"/>
<path d="M606.693 247.067C603.6 246.905 600.568 247.989 598.271 250.067C595.975 252.145 594.594 255.051 594.443 258.15C582.662 476.203 298.577 547.137 183.657 365.249C206.99 361.983 293.209 325.467 272.209 302.363C267.657 297.843 260.308 297.843 255.755 302.363C232.526 324.166 203.318 338.546 171.875 343.666C58.938 94.2393 392.262 -100.601 555.129 120.013C558.801 125.33 566.087 126.664 571.399 122.987C573.957 121.226 575.701 118.518 576.259 115.466C576.816 112.414 576.139 109.268 574.378 106.716C397.165 -133.737 32.9251 72.0652 147.605 347.396C54.2717 358.01 -45.7149 283.229 86.8237 236.797C92.9748 234.86 96.3967 228.308 94.4644 222.152C92.5321 216.001 85.9748 212.579 79.8244 214.511C42.7257 226.178 16.1271 245.314 4.92307 268.527C-26.2276 350.194 98.2564 380.058 159.043 369.558C280.964 579.331 603.43 505.011 617.656 259.313C617.99 252.906 613.089 247.438 606.688 247.063L606.693 247.067Z" fill="#F0B800"/>
</svg>
